<svg width="918" height="950" viewBox="0 0 918 950" fill="none" xmlns="http://www.w3.org/2000/svg">
<path fill-rule="evenodd" clip-rule="evenodd" d="M91.675 1H816L813 22L818 40.5L838 79L868.5 103L889.5 109L908 105V836L889.5 832L868.5 838L838 862L818 900.5L813 919L816.5 939H91.675L95 920L90 901.5L70 863L39.5 839L18.5 833L0 837V103L18.5 107L39.5 101L70 77L90 38.5L95 20L91.675 1Z" fill="#0192B8"/>
<path d="M773 33C775 111 850 145.5 874.5 145.5" stroke="url(#paint0_linear_2129_292)" stroke-width="10"/>
<path d="M131.5 33C129.5 111 54.5 146.5 30 146.5" stroke="url(#paint1_linear_2129_292)" stroke-width="10"/>
<path d="M773.5 904.5C775.5 826.5 850.5 792 875 792" stroke="url(#paint2_linear_2129_292)" stroke-width="10"/>
<path d="M133 905C130.99 827.347 55.6207 793 31 793" stroke="url(#paint3_linear_2129_292)" stroke-width="10"/>
<line x1="92.0005" y1="11" x2="816" y2="11" stroke="url(#paint4_linear_2129_292)" stroke-width="20"/>
<path d="M101.5 1C101.668 94.3089 30.5005 113.5 0.000183105 113.5" stroke="url(#paint5_linear_2129_292)" stroke-width="20"/>
<path d="M898 829L898 105" stroke="url(#paint6_linear_2129_292)" stroke-width="20"/>
<path d="M806.5 940C806.333 846.691 877.5 827.5 908 827.5" stroke="url(#paint7_linear_2129_292)" stroke-width="20"/>
<path d="M101.5 939.5C101.668 846.191 30.5005 827 0.000183105 827" stroke="url(#paint8_linear_2129_292)" stroke-width="20"/>
<line x1="817" y1="930" x2="93" y2="930" stroke="url(#paint9_linear_2129_292)" stroke-width="20"/>
<path d="M10 104L10 828" stroke="url(#paint10_linear_2129_292)" stroke-width="20"/>
<path d="M870 794L870 141" stroke="url(#paint11_linear_2129_292)" stroke-width="10"/>
<path d="M35 142L35 798" stroke="url(#paint12_linear_2129_292)" stroke-width="10"/>
<path d="M132 38L777 37.9999" stroke="url(#paint13_linear_2129_292)" stroke-width="10"/>
<path d="M778 900L133 900" stroke="url(#paint14_linear_2129_292)" stroke-width="10"/>
<path d="M806 3C805.833 96.3089 877 115.5 907.5 115.5" stroke="url(#paint15_linear_2129_292)" stroke-width="20"/>
<path d="M205.62 419.74L239.5 507.24C240.9 510.507 242.347 512.793 243.84 514.1C245.427 515.407 246.827 516.107 248.04 516.2V519C245.053 518.813 241.46 518.72 237.26 518.72C233.153 518.627 228.953 518.58 224.66 518.58C220.18 518.58 215.933 518.627 211.92 518.72C207.907 518.72 204.687 518.813 202.26 519V516.2C207.02 516.013 210.053 515.22 211.36 513.82C212.667 512.327 212.387 509.2 210.52 504.44L187.28 440.88L190.08 436.68L169.64 489.46C167.493 495.06 166.187 499.587 165.72 503.04C165.253 506.493 165.487 509.153 166.42 511.02C167.353 512.887 168.8 514.193 170.76 514.94C172.813 515.687 175.24 516.107 178.04 516.2V519C174.773 518.813 171.74 518.72 168.94 518.72C166.233 518.627 163.293 518.58 160.12 518.58C158.253 518.58 156.34 518.627 154.38 518.72C152.513 518.72 150.88 518.813 149.48 519V516.2C151.533 515.827 153.587 514.52 155.64 512.28C157.787 510.04 159.887 506.167 161.94 500.66L193.44 419.74C195.307 419.927 197.313 420.02 199.46 420.02C201.7 420.02 203.753 419.927 205.62 419.74ZM212.9 478.68V481.48H171.18L172.58 478.68H212.9ZM266.962 419.88C269.482 419.973 272.842 420.067 277.042 420.16C281.242 420.253 285.442 420.3 289.642 420.3C294.215 420.3 298.602 420.253 302.802 420.16C307.095 420.067 310.129 420.02 311.902 420.02C321.049 420.02 328.562 420.953 334.442 422.82C340.415 424.687 344.895 427.44 347.882 431.08C350.869 434.627 352.362 439.06 352.362 444.38C352.362 447.74 351.662 451.053 350.262 454.32C348.955 457.493 346.669 460.433 343.402 463.14C340.229 465.847 335.795 467.993 330.102 469.58C324.502 471.167 317.409 471.96 308.822 471.96H295.382V469.16H307.422C312.555 469.16 316.429 468.133 319.042 466.08C321.749 463.933 323.569 461.133 324.502 457.68C325.529 454.133 326.042 450.213 326.042 445.92C326.042 438.547 324.875 432.853 322.542 428.84C320.209 424.733 316.242 422.68 310.642 422.68C307.189 422.68 304.949 423.473 303.922 425.06C302.989 426.647 302.522 429.867 302.522 434.72V504.16C302.522 507.52 302.755 510.04 303.222 511.72C303.782 513.4 304.762 514.52 306.162 515.08C307.655 515.64 309.849 516.013 312.742 516.2V519C310.129 518.813 306.769 518.72 302.662 518.72C298.649 518.627 294.589 518.58 290.482 518.58C285.722 518.58 281.242 518.627 277.042 518.72C272.842 518.72 269.482 518.813 266.962 519V516.2C269.855 516.013 272.002 515.64 273.402 515.08C274.895 514.52 275.875 513.4 276.342 511.72C276.902 510.04 277.182 507.52 277.182 504.16V434.72C277.182 431.267 276.902 428.747 276.342 427.16C275.875 425.48 274.895 424.36 273.402 423.8C272.002 423.147 269.855 422.773 266.962 422.68V419.88ZM294.822 469.58C298.462 469.673 301.775 469.86 304.762 470.14C307.749 470.42 310.409 470.7 312.742 470.98C315.169 471.167 317.269 471.307 319.042 471.4C328.282 471.96 335.142 473.733 339.622 476.72C344.195 479.613 347.089 483.953 348.302 489.74L351.242 504.3C352.082 507.847 352.969 510.367 353.902 511.86C354.835 513.26 356.142 513.913 357.822 513.82C358.849 513.82 359.735 513.633 360.482 513.26C361.229 512.793 361.975 512.14 362.722 511.3L364.682 513.12C361.975 516.013 359.035 518.02 355.862 519.14C352.689 520.353 349.002 520.96 344.802 520.96C339.295 520.96 334.769 519.887 331.222 517.74C327.769 515.593 325.575 511.627 324.642 505.84L322.262 491.84C321.702 488.013 320.955 484.607 320.022 481.62C319.182 478.633 318.015 476.3 316.522 474.62C315.029 472.847 312.929 471.96 310.222 471.96H295.102L294.822 469.58ZM436.37 417.92C446.636 417.92 455.596 419.927 463.25 423.94C470.903 427.953 476.83 433.74 481.03 441.3C485.323 448.767 487.47 457.867 487.47 468.6C487.47 479.053 485.276 488.2 480.89 496.04C476.596 503.88 470.576 509.993 462.83 514.38C455.083 518.767 446.216 520.96 436.23 520.96C426.056 520.96 417.096 518.953 409.35 514.94C401.696 510.927 395.723 505.14 391.43 497.58C387.23 490.02 385.13 480.92 385.13 470.28C385.13 459.827 387.323 450.68 391.71 442.84C396.19 435 402.256 428.887 409.91 424.5C417.563 420.113 426.383 417.92 436.37 417.92ZM435.81 420.44C430.863 420.44 426.57 422.54 422.93 426.74C419.29 430.94 416.443 436.727 414.39 444.1C412.43 451.473 411.45 460.013 411.45 469.72C411.45 479.613 412.57 488.247 414.81 495.62C417.143 502.9 420.223 508.547 424.05 512.56C427.876 516.48 432.123 518.44 436.79 518.44C441.736 518.44 446.03 516.34 449.67 512.14C453.403 507.94 456.25 502.153 458.21 494.78C460.17 487.313 461.15 478.773 461.15 469.16C461.15 459.173 460.03 450.54 457.79 443.26C455.55 435.98 452.47 430.38 448.55 426.46C444.723 422.447 440.476 420.44 435.81 420.44ZM638.216 419.88V422.68C635.416 422.773 633.269 423.147 631.776 423.8C630.282 424.36 629.256 425.48 628.696 427.16C628.229 428.747 627.996 431.267 627.996 434.72V504.16C627.996 507.52 628.276 510.04 628.836 511.72C629.396 513.4 630.376 514.52 631.776 515.08C633.269 515.64 635.416 516.013 638.216 516.2V519C635.509 518.813 632.009 518.72 627.716 518.72C623.516 518.627 619.222 518.58 614.836 518.58C610.076 518.58 605.596 518.627 601.396 518.72C597.289 518.72 593.929 518.813 591.316 519V516.2C594.489 516.013 596.869 515.64 598.456 515.08C600.136 514.52 601.256 513.4 601.816 511.72C602.376 510.04 602.656 507.52 602.656 504.16V428.84L603.916 428.7L568.916 519H566.676L528.036 428.98V493.8C528.036 499.493 528.316 503.88 528.876 506.96C529.436 509.947 530.696 512.093 532.656 513.4C534.616 514.707 537.696 515.64 541.896 516.2V519C540.122 518.813 537.742 518.72 534.756 518.72C531.862 518.627 529.109 518.58 526.496 518.58C524.442 518.58 522.296 518.627 520.056 518.72C517.909 518.72 516.089 518.813 514.596 519V516.2C517.582 515.64 519.776 514.753 521.176 513.54C522.669 512.233 523.649 510.227 524.116 507.52C524.582 504.72 524.816 500.893 524.816 496.04V434.72C524.816 431.267 524.582 428.747 524.116 427.16C523.649 425.48 522.669 424.36 521.176 423.8C519.682 423.147 517.489 422.773 514.596 422.68V419.88C516.089 419.973 517.909 420.067 520.056 420.16C522.296 420.253 524.442 420.3 526.496 420.3C531.256 420.3 535.829 420.253 540.216 420.16C544.602 420.067 548.569 419.973 552.116 419.88L580.676 486.52L576.756 490.44L603.776 420.3C605.549 420.3 607.369 420.3 609.236 420.3C611.196 420.3 613.062 420.3 614.836 420.3C619.222 420.3 623.516 420.253 627.716 420.16C632.009 420.067 635.509 419.973 638.216 419.88ZM714.416 419.74L748.296 507.24C749.696 510.507 751.143 512.793 752.636 514.1C754.223 515.407 755.623 516.107 756.836 516.2V519C753.849 518.813 750.256 518.72 746.056 518.72C741.949 518.627 737.749 518.58 733.456 518.58C728.976 518.58 724.729 518.627 720.716 518.72C716.703 518.72 713.483 518.813 711.056 519V516.2C715.816 516.013 718.849 515.22 720.156 513.82C721.463 512.327 721.183 509.2 719.316 504.44L696.076 440.88L698.876 436.68L678.436 489.46C676.289 495.06 674.983 499.587 674.516 503.04C674.049 506.493 674.283 509.153 675.216 511.02C676.149 512.887 677.596 514.193 679.556 514.94C681.609 515.687 684.036 516.107 686.836 516.2V519C683.569 518.813 680.536 518.72 677.736 518.72C675.029 518.627 672.089 518.58 668.916 518.58C667.049 518.58 665.136 518.627 663.176 518.72C661.309 518.72 659.676 518.813 658.276 519V516.2C660.329 515.827 662.383 514.52 664.436 512.28C666.583 510.04 668.683 506.167 670.736 500.66L702.236 419.74C704.103 419.927 706.109 420.02 708.256 420.02C710.496 420.02 712.549 419.927 714.416 419.74ZM721.696 478.68V481.48H679.976L681.376 478.68H721.696Z" fill="white"/>
<path d="M570.1 648.184C564.042 648.174 559.138 646.629 555.388 643.551C551.724 640.558 549.043 636.67 547.344 631.889C545.731 627.107 544.929 622.114 544.938 616.909C544.95 610.167 545.985 603.385 548.045 596.562C550.105 589.739 552.889 583.258 556.398 577.12C559.993 570.897 564.056 565.4 568.587 560.629C573.118 555.773 577.86 551.984 582.814 549.262C587.854 546.454 592.805 545.055 597.669 545.063C601.168 545.069 603.983 545.927 606.113 547.638C608.329 549.263 609.433 552.081 609.426 556.091C609.422 558.566 608.991 561.381 608.132 564.537C607.273 567.608 606.116 570.592 604.661 573.491C603.205 576.305 601.58 578.648 599.785 580.523C598.075 582.397 596.324 583.333 594.532 583.33C593.849 583.329 593.124 583.114 592.357 582.686C591.675 582.258 591.079 581.489 590.569 580.379C591.851 578.93 593.262 577.141 594.802 575.01C596.427 572.794 597.967 570.493 599.422 568.106C600.877 565.634 602.033 563.247 602.89 560.944C603.833 558.556 604.306 556.466 604.309 554.674C604.312 552.968 603.802 551.602 602.78 550.576C601.843 549.465 600.265 548.908 598.047 548.904C594.377 548.897 590.535 550.384 586.519 553.364C582.589 556.344 578.742 560.348 574.979 565.376C571.301 570.319 567.963 575.86 564.966 581.999C561.969 588.138 559.569 594.406 557.766 600.803C556.048 607.2 555.184 613.3 555.174 619.102C555.167 623.284 555.758 627.295 556.946 631.137C558.134 634.894 560.049 637.927 562.69 640.235C565.417 642.629 568.913 643.83 573.18 643.837C577.703 643.845 582.185 642.573 586.626 640.02C591.153 637.468 595.298 634.104 599.06 629.93C602.822 625.755 605.816 621.237 608.043 616.377L609.833 617.66C607.007 623.202 603.585 628.316 599.566 633.002C595.548 637.604 591.062 641.265 586.108 643.987C581.153 646.795 575.818 648.194 570.1 648.184ZM611.471 643.135C608.826 643.13 606.609 642.231 604.82 640.435C602.945 638.726 602.011 636.079 602.017 632.495C602.023 629.423 602.711 626.139 604.082 622.642C605.454 619.061 607.337 615.565 609.732 612.156C612.128 608.661 614.821 605.509 617.813 602.698C620.889 599.802 624.093 597.503 627.424 595.802C630.841 594.101 634.213 593.254 637.541 593.26C640.869 593.265 643.641 594.166 645.856 595.962C648.072 597.672 649.177 599.978 649.172 602.88C649.169 605.013 648.569 606.463 647.373 607.228C646.262 607.995 644.768 608.376 642.891 608.373C643.063 607.69 643.192 606.965 643.279 606.197C643.451 605.344 643.537 604.577 643.539 603.894C643.542 601.931 643.075 600.266 642.139 598.899C641.203 597.447 639.583 596.719 637.279 596.715C634.889 596.711 632.456 597.56 629.978 599.263C627.501 600.88 625.108 603.094 622.799 605.906C620.49 608.633 618.437 611.616 616.64 614.856C614.842 618.095 613.429 621.293 612.399 624.448C611.37 627.604 610.853 630.419 610.849 632.894C610.843 636.222 611.992 637.888 614.296 637.892C616.259 637.895 618.394 637.003 620.701 635.215C623.008 633.341 625.359 630.999 627.753 628.187C630.232 625.29 632.584 622.307 634.808 619.239C637.032 616.171 639 613.358 640.711 610.801C641.053 610.29 641.267 610.034 641.352 610.034C641.864 610.12 642.504 610.292 643.271 610.549C644.124 610.807 644.849 611.149 645.445 611.577C646.042 612.005 646.34 612.56 646.338 613.243C646.337 614.011 645.951 615.077 645.181 616.441C644.411 617.719 643.555 619.211 642.613 620.916C641.672 622.621 640.815 624.369 640.044 626.16C639.273 627.865 638.887 629.486 638.884 631.022C638.882 632.302 639.221 633.583 639.901 634.864C640.582 636.06 641.69 636.659 643.226 636.661C645.53 636.665 648.562 635.007 652.323 631.685C656.083 628.278 659.889 623.207 663.741 616.473L665.019 617.755C663.219 622.36 660.908 626.409 658.086 629.903C655.264 633.397 652.23 636.122 648.984 638.079C645.823 640.037 642.707 641.012 639.635 641.007C636.477 641.002 634.132 640.059 632.6 638.179C631.152 636.299 630.43 634.25 630.434 632.031C630.435 631.519 630.479 630.965 630.565 630.368C630.652 629.685 630.738 629.003 630.825 628.32C627.147 633.263 623.77 636.969 620.693 639.439C617.703 641.908 614.628 643.14 611.471 643.135ZM699.095 642.133C696.706 642.129 694.659 641.315 692.955 639.691C691.251 638.066 689.889 636.016 688.87 633.54C687.935 631.063 687.214 628.545 686.707 625.984C686.285 623.338 686.075 621.034 686.079 619.071C687.017 619.073 688.383 618.862 690.176 618.438C691.968 617.929 693.804 617.207 695.683 616.271C697.562 615.251 699.143 613.973 700.426 612.44C701.794 610.821 702.48 608.944 702.484 606.811C702.487 605.019 701.849 603.61 700.571 602.584C699.293 601.558 697.8 601.043 696.093 601.04C693.448 601.036 690.972 601.97 688.665 603.843C686.358 605.631 684.263 608.017 682.38 611.001C680.583 613.899 678.957 617.011 677.5 620.336C676.044 623.662 674.801 626.817 673.772 629.802C672.743 632.787 671.885 635.26 671.199 637.221C670.685 638.757 669.958 639.779 669.018 640.29C668.078 640.885 667.097 641.182 666.073 641.181C664.622 641.178 663.556 640.579 662.876 639.383C662.28 638.187 661.899 636.693 661.731 634.901C661.649 633.024 661.61 631.104 661.613 629.141C661.621 624.704 662.355 619.585 663.816 613.785C665.276 607.985 667.207 601.972 669.607 595.747C672.092 589.436 674.79 583.339 677.702 577.456C680.613 571.573 683.524 566.245 686.433 561.471C689.343 556.698 692.037 552.905 694.517 550.093C696.996 547.282 699.004 545.877 700.54 545.88C701.735 545.882 702.672 546.694 703.352 548.316C704.117 549.939 704.498 551.902 704.494 554.206C704.489 557.108 703.843 560.392 702.557 564.059C701.271 567.641 699.43 571.264 697.034 574.93C694.724 578.595 691.945 582.046 688.697 585.283C685.534 588.521 682.073 591.288 678.314 593.586C675.486 600.493 673.341 607.23 671.88 613.799C670.503 620.281 669.811 625.742 669.803 630.179C671.175 626.768 672.802 623.016 674.687 618.923C676.656 614.831 678.882 610.909 681.363 607.159C683.844 603.408 686.537 600.341 689.443 597.957C692.348 595.572 695.38 594.383 698.537 594.388C701.694 594.394 704.38 595.508 706.595 597.73C708.81 599.953 709.915 602.642 709.909 605.8C709.905 608.53 709.175 610.876 707.721 612.836C706.353 614.711 704.643 616.244 702.593 617.435C700.629 618.541 698.622 619.391 696.573 619.985C694.609 620.494 692.988 620.747 691.708 620.745C691.792 621.427 692.046 622.665 692.469 624.458C692.893 626.251 693.487 628.129 694.252 630.093C695.102 632.057 696.123 633.765 697.315 635.218C698.507 636.586 699.957 637.271 701.663 637.274C704.138 637.278 706.486 636.343 708.708 634.47C710.93 632.596 713.025 630.125 714.993 627.057C717.046 623.903 718.93 620.365 720.643 616.442L721.921 617.724C720.719 621.904 718.878 625.869 716.396 629.619C713.916 633.284 711.137 636.266 708.061 638.565C705.07 640.949 702.082 642.138 699.095 642.133ZM680.499 588.469C684.43 585.319 687.849 581.741 690.757 577.735C693.751 573.729 696.062 569.893 697.689 566.227C699.317 562.475 700.133 559.532 700.136 557.399C700.137 556.972 700.095 556.674 700.01 556.503C700.01 556.332 699.925 556.247 699.754 556.246C698.901 556.245 697.405 557.736 695.267 560.719C693.214 563.702 690.86 567.666 688.206 572.61C685.553 577.47 682.984 582.756 680.499 588.469ZM732.027 642.958C726.821 642.949 722.898 641.491 720.258 638.586C717.703 635.765 716.429 632.264 716.436 628.083C716.443 624.243 717.388 620.191 719.273 615.928C721.243 611.665 723.81 607.658 726.974 603.909C730.223 600.16 733.769 597.137 737.613 594.839C741.457 592.457 745.257 591.268 749.011 591.275C750.974 591.278 752.765 591.793 754.385 592.82C756.09 593.847 756.939 595.939 756.934 599.096C756.928 602.339 755.942 605.409 753.974 608.307C752.092 611.12 749.57 613.633 746.409 615.846C743.333 618.06 739.917 619.889 736.16 621.333C732.488 622.692 728.817 623.539 725.147 623.874C724.975 624.727 724.846 625.537 724.759 626.305C724.673 627.073 724.629 627.798 724.627 628.481C724.625 629.761 724.751 631.041 725.005 632.322C725.344 633.602 725.897 634.798 726.663 635.909C727.429 636.934 728.452 637.746 729.731 638.346C731.095 638.946 732.758 639.247 734.721 639.25C738.39 639.257 742.019 638.239 745.606 636.197C749.194 634.07 752.527 631.302 755.604 627.894C758.682 624.486 761.291 620.736 763.432 616.644L764.966 617.798C762.653 622.914 759.701 627.347 756.111 631.095C752.606 634.844 748.761 637.738 744.576 639.779C740.476 641.906 736.293 642.965 732.027 642.958ZM725.792 621.443C728.097 620.679 730.701 619.574 733.605 618.128C736.509 616.597 739.286 614.81 741.934 612.767C744.669 610.723 746.891 608.466 748.602 605.994C750.398 603.523 751.299 600.921 751.303 598.191C751.305 597.252 751.136 596.527 750.795 596.014C750.455 595.501 749.73 595.244 748.621 595.242C746.573 595.239 744.395 596.046 742.088 597.663C739.782 599.195 737.56 601.239 735.422 603.796C733.284 606.352 731.359 609.165 729.647 612.234C727.935 615.303 726.65 618.373 725.792 621.443Z" fill="white"/>
<defs>
<linearGradient id="paint0_linear_2129_292" x1="786.533" y1="52.6875" x2="865.43" y2="124.712" gradientUnits="userSpaceOnUse">
<stop stop-color="#D4A041"/>
<stop offset="0.230083" stop-color="#F7D14E"/>
<stop offset="0.464512" stop-color="#FCFBE7"/>
<stop offset="0.674728" stop-color="#FBE67B"/>
<stop offset="1" stop-color="#8C421D"/>
</linearGradient>
<linearGradient id="paint1_linear_2129_292" x1="117.967" y1="52.8625" x2="38.436" y2="124.826" gradientUnits="userSpaceOnUse">
<stop stop-color="#8C421D"/>
<stop offset="0.325272" stop-color="#FBE67B"/>
<stop offset="0.535488" stop-color="#FCFBE7"/>
<stop offset="0.769917" stop-color="#F7D14E"/>
<stop offset="1" stop-color="#D4A041"/>
</linearGradient>
<linearGradient id="paint2_linear_2129_292" x1="787.033" y1="884.813" x2="865.93" y2="812.788" gradientUnits="userSpaceOnUse">
<stop stop-color="#8C421D"/>
<stop offset="0.325272" stop-color="#FBE67B"/>
<stop offset="0.535488" stop-color="#FCFBE7"/>
<stop offset="0.769917" stop-color="#F7D14E"/>
<stop offset="1" stop-color="#D4A041"/>
</linearGradient>
<linearGradient id="paint3_linear_2129_292" x1="119.4" y1="885.4" x2="40.7908" y2="812.962" gradientUnits="userSpaceOnUse">
<stop stop-color="#D4A041"/>
<stop offset="0.230083" stop-color="#F7D14E"/>
<stop offset="0.464512" stop-color="#FCFBE7"/>
<stop offset="0.674728" stop-color="#FBE67B"/>
<stop offset="1" stop-color="#8C421D"/>
</linearGradient>
<linearGradient id="paint4_linear_2129_292" x1="117.042" y1="21" x2="698.351" y2="21.6852" gradientUnits="userSpaceOnUse">
<stop stop-color="#8C421D"/>
<stop offset="0.325272" stop-color="#FBE67B"/>
<stop offset="0.535488" stop-color="#FCFBE7"/>
<stop offset="0.769917" stop-color="#F7D14E"/>
<stop offset="1" stop-color="#D4A041"/>
</linearGradient>
<linearGradient id="paint5_linear_2129_292" x1="87.9671" y1="20.6875" x2="9.07069" y2="92.7122" gradientUnits="userSpaceOnUse">
<stop stop-color="#8C421D"/>
<stop offset="0.325272" stop-color="#FBE67B"/>
<stop offset="0.535488" stop-color="#FCFBE7"/>
<stop offset="0.769917" stop-color="#F7D14E"/>
<stop offset="1" stop-color="#D4A041"/>
</linearGradient>
<linearGradient id="paint6_linear_2129_292" x1="897.859" y1="732.467" x2="897.859" y2="222.65" gradientUnits="userSpaceOnUse">
<stop stop-color="#D4A041"/>
<stop offset="0.230083" stop-color="#F7D14E"/>
<stop offset="0.464512" stop-color="#FCFBE7"/>
<stop offset="0.674728" stop-color="#FBE67B"/>
<stop offset="1" stop-color="#8C421D"/>
</linearGradient>
<linearGradient id="paint7_linear_2129_292" x1="820.033" y1="920.313" x2="898.93" y2="848.288" gradientUnits="userSpaceOnUse">
<stop stop-color="#8C421D"/>
<stop offset="0.325272" stop-color="#FBE67B"/>
<stop offset="0.535488" stop-color="#FCFBE7"/>
<stop offset="0.769917" stop-color="#F7D14E"/>
<stop offset="1" stop-color="#D4A041"/>
</linearGradient>
<linearGradient id="paint8_linear_2129_292" x1="87.9671" y1="919.813" x2="9.07069" y2="847.788" gradientUnits="userSpaceOnUse">
<stop stop-color="#D4A041"/>
<stop offset="0.230083" stop-color="#F7D14E"/>
<stop offset="0.464512" stop-color="#FCFBE7"/>
<stop offset="0.674728" stop-color="#FBE67B"/>
<stop offset="1" stop-color="#8C421D"/>
</linearGradient>
<linearGradient id="paint9_linear_2129_292" x1="720.467" y1="919.825" x2="210.65" y2="919.275" gradientUnits="userSpaceOnUse">
<stop stop-color="#8C421D"/>
<stop offset="0.325272" stop-color="#FBE67B"/>
<stop offset="0.535488" stop-color="#FCFBE7"/>
<stop offset="0.769917" stop-color="#F7D14E"/>
<stop offset="1" stop-color="#D4A041"/>
</linearGradient>
<linearGradient id="paint10_linear_2129_292" x1="10.1406" y1="200.533" x2="10.1406" y2="710.35" gradientUnits="userSpaceOnUse">
<stop stop-color="#D4A041"/>
<stop offset="0.230083" stop-color="#F7D14E"/>
<stop offset="0.464512" stop-color="#FCFBE7"/>
<stop offset="0.674728" stop-color="#FBE67B"/>
<stop offset="1" stop-color="#8C421D"/>
</linearGradient>
<linearGradient id="paint11_linear_2129_292" x1="870.175" y1="706.933" x2="874.078" y2="247.14" gradientUnits="userSpaceOnUse">
<stop stop-color="#D4A041"/>
<stop offset="0.230083" stop-color="#F7D14E"/>
<stop offset="0.464512" stop-color="#FCFBE7"/>
<stop offset="0.674728" stop-color="#FBE67B"/>
<stop offset="1" stop-color="#8C421D"/>
</linearGradient>
<linearGradient id="paint12_linear_2129_292" x1="34.825" y1="229.467" x2="30.8579" y2="691.372" gradientUnits="userSpaceOnUse">
<stop stop-color="#D4A041"/>
<stop offset="0.230083" stop-color="#F7D14E"/>
<stop offset="0.464512" stop-color="#FCFBE7"/>
<stop offset="0.674728" stop-color="#FBE67B"/>
<stop offset="1" stop-color="#8C421D"/>
</linearGradient>
<linearGradient id="paint13_linear_2129_292" x1="218" y1="38.175" x2="672.188" y2="38.709" gradientUnits="userSpaceOnUse">
<stop stop-color="#8C421D"/>
<stop offset="0.325272" stop-color="#FBE67B"/>
<stop offset="0.535488" stop-color="#FCFBE7"/>
<stop offset="0.769917" stop-color="#F7D14E"/>
<stop offset="1" stop-color="#D4A041"/>
</linearGradient>
<linearGradient id="paint14_linear_2129_292" x1="692" y1="899.825" x2="237.812" y2="899.299" gradientUnits="userSpaceOnUse">
<stop stop-color="#8C421D"/>
<stop offset="0.325272" stop-color="#FBE67B"/>
<stop offset="0.535488" stop-color="#FCFBE7"/>
<stop offset="0.769917" stop-color="#F7D14E"/>
<stop offset="1" stop-color="#D4A041"/>
</linearGradient>
<linearGradient id="paint15_linear_2129_292" x1="819.533" y1="22.6875" x2="898.43" y2="94.7122" gradientUnits="userSpaceOnUse">
<stop stop-color="#D4A041"/>
<stop offset="0.230083" stop-color="#F7D14E"/>
<stop offset="0.464512" stop-color="#FCFBE7"/>
<stop offset="0.674728" stop-color="#FBE67B"/>
<stop offset="1" stop-color="#8C421D"/>
</linearGradient>
</defs>
</svg>
