<svg width="918" height="950" viewBox="0 0 918 950" fill="none" xmlns="http://www.w3.org/2000/svg">
<path fill-rule="evenodd" clip-rule="evenodd" d="M91.675 1H816L813 22L818 40.5L838 79L868.5 103L889.5 109L908 105V836L889.5 832L868.5 838L838 862L818 900.5L813 919L816.5 939H91.675L95 920L90 901.5L70 863L39.5 839L18.5 833L0 837V103L18.5 107L39.5 101L70 77L90 38.5L95 20L91.675 1Z" fill="#0192B8"/>
<path d="M773 33C775 111 850 145.5 874.5 145.5" stroke="url(#paint0_linear_2129_292)" stroke-width="10"/>
<path d="M131.5 33C129.5 111 54.5 146.5 30 146.5" stroke="url(#paint1_linear_2129_292)" stroke-width="10"/>
<path d="M773.5 904.5C775.5 826.5 850.5 792 875 792" stroke="url(#paint2_linear_2129_292)" stroke-width="10"/>
<path d="M133 905C130.99 827.347 55.6207 793 31 793" stroke="url(#paint3_linear_2129_292)" stroke-width="10"/>
<line x1="92.0005" y1="11" x2="816" y2="11" stroke="url(#paint4_linear_2129_292)" stroke-width="20"/>
<path d="M101.5 1C101.668 94.3089 30.5005 113.5 0.000183105 113.5" stroke="url(#paint5_linear_2129_292)" stroke-width="20"/>
<path d="M898 829L898 105" stroke="url(#paint6_linear_2129_292)" stroke-width="20"/>
<path d="M806.5 940C806.333 846.691 877.5 827.5 908 827.5" stroke="url(#paint7_linear_2129_292)" stroke-width="20"/>
<path d="M101.5 939.5C101.668 846.191 30.5005 827 0.000183105 827" stroke="url(#paint8_linear_2129_292)" stroke-width="20"/>
<line x1="817" y1="930" x2="93" y2="930" stroke="url(#paint9_linear_2129_292)" stroke-width="20"/>
<path d="M10 104L10 828" stroke="url(#paint10_linear_2129_292)" stroke-width="20"/>
<path d="M870 794L870 141" stroke="url(#paint11_linear_2129_292)" stroke-width="10"/>
<path d="M35 142L35 798" stroke="url(#paint12_linear_2129_292)" stroke-width="10"/>
<path d="M132 38L777 37.9999" stroke="url(#paint13_linear_2129_292)" stroke-width="10"/>
<path d="M778 900L133 900" stroke="url(#paint14_linear_2129_292)" stroke-width="10"/>
<path d="M806 3C805.833 96.3089 877 115.5 907.5 115.5" stroke="url(#paint15_linear_2129_292)" stroke-width="20"/>
<path d="M203.52 419.6L237.54 507.24C238.847 510.6 240.293 512.933 241.88 514.24C243.56 515.453 245.053 516.107 246.36 516.2V519C243.56 518.813 240.247 518.72 236.42 518.72C232.687 518.627 228.907 518.58 225.08 518.58C220.787 518.58 216.727 518.627 212.9 518.72C209.073 518.72 206.04 518.813 203.8 519V516.2C208.56 516.013 211.547 515.22 212.76 513.82C214.067 512.327 213.787 509.2 211.92 504.44L188.12 439.34L190.64 435.7L169.36 491.14C167.307 496.273 166.047 500.473 165.58 503.74C165.207 507.007 165.44 509.527 166.28 511.3C167.213 513.073 168.66 514.333 170.62 515.08C172.673 515.733 175.1 516.107 177.9 516.2V519C174.82 518.813 171.88 518.72 169.08 518.72C166.28 518.627 163.433 518.58 160.54 518.58C158.487 518.58 156.527 518.627 154.66 518.72C152.887 518.72 151.3 518.813 149.9 519V516.2C151.86 515.827 153.867 514.567 155.92 512.42C157.973 510.273 159.98 506.633 161.94 501.5L193.86 419.6C195.353 419.693 196.94 419.74 198.62 419.74C200.393 419.74 202.027 419.693 203.52 419.6ZM213.32 478.68V481.48H171.6L173 478.68H213.32ZM265.605 419.88C267.938 419.973 271.065 420.067 274.985 420.16C278.998 420.253 282.965 420.3 286.885 420.3C291.365 420.3 295.705 420.253 299.905 420.16C304.105 420.067 307.091 420.02 308.865 420.02C317.545 420.02 324.731 421 330.425 422.96C336.211 424.827 340.505 427.58 343.305 431.22C346.198 434.86 347.645 439.247 347.645 444.38C347.645 447.553 346.991 450.773 345.685 454.04C344.378 457.213 342.138 460.2 338.965 463C335.885 465.707 331.638 467.9 326.225 469.58C320.811 471.167 313.998 471.96 305.785 471.96H292.345V469.16H304.385C309.891 469.16 314.045 468.133 316.845 466.08C319.738 463.933 321.698 461.133 322.725 457.68C323.845 454.133 324.405 450.213 324.405 445.92C324.405 438.547 323.098 432.853 320.485 428.84C317.871 424.733 313.391 422.68 307.045 422.68C303.405 422.68 301.025 423.473 299.905 425.06C298.878 426.647 298.365 429.867 298.365 434.72V504.16C298.365 507.52 298.598 510.04 299.065 511.72C299.625 513.4 300.651 514.52 302.145 515.08C303.638 515.64 305.878 516.013 308.865 516.2V519C306.345 518.813 303.171 518.72 299.345 518.72C295.518 518.627 291.645 518.58 287.725 518.58C283.245 518.58 278.998 518.627 274.985 518.72C271.065 518.72 267.938 518.813 265.605 519V516.2C268.591 516.013 270.831 515.64 272.325 515.08C273.818 514.52 274.798 513.4 275.265 511.72C275.825 510.04 276.105 507.52 276.105 504.16V434.72C276.105 431.267 275.825 428.747 275.265 427.16C274.798 425.48 273.771 424.36 272.185 423.8C270.691 423.147 268.498 422.773 265.605 422.68V419.88ZM292.065 469.58C296.078 469.673 299.531 469.86 302.425 470.14C305.411 470.42 308.025 470.7 310.265 470.98C312.505 471.167 314.511 471.307 316.285 471.4C324.778 472.147 331.031 473.967 335.045 476.86C339.151 479.753 341.811 484.093 343.025 489.88L346.245 504.3C347.085 508.033 347.971 510.647 348.905 512.14C349.838 513.633 351.191 514.38 352.965 514.38C354.178 514.287 355.158 514.007 355.905 513.54C356.745 512.98 357.631 512.187 358.565 511.16L360.525 512.84C358.005 515.733 355.298 517.787 352.405 519C349.511 520.307 346.011 520.96 341.905 520.96C336.865 520.96 332.711 519.887 329.445 517.74C326.178 515.593 324.031 511.627 323.005 505.84L320.485 491.84C319.831 487.92 319.038 484.513 318.105 481.62C317.171 478.633 315.865 476.3 314.185 474.62C312.598 472.847 310.358 471.96 307.465 471.96H292.345L292.065 469.58ZM431.558 417.92C441.451 417.92 450.085 419.927 457.458 423.94C464.925 427.953 470.711 433.74 474.818 441.3C478.925 448.767 480.978 457.867 480.978 468.6C480.978 479.053 478.878 488.2 474.678 496.04C470.478 503.88 464.598 509.993 457.038 514.38C449.571 518.767 441.031 520.96 431.418 520.96C421.525 520.96 412.845 518.953 405.378 514.94C398.005 510.927 392.265 505.14 388.158 497.58C384.051 490.02 381.998 480.92 381.998 470.28C381.998 459.827 384.098 450.68 388.298 442.84C392.591 435 398.425 428.887 405.798 424.5C413.265 420.113 421.851 417.92 431.558 417.92ZM430.998 420.44C425.771 420.44 421.198 422.54 417.278 426.74C413.451 430.94 410.465 436.727 408.318 444.1C406.265 451.473 405.238 460.013 405.238 469.72C405.238 479.613 406.405 488.247 408.738 495.62C411.165 502.9 414.385 508.547 418.398 512.56C422.505 516.48 427.031 518.44 431.978 518.44C437.205 518.44 441.731 516.34 445.558 512.14C449.478 507.94 452.465 502.153 454.518 494.78C456.665 487.313 457.738 478.773 457.738 469.16C457.738 459.173 456.525 450.54 454.098 443.26C451.765 435.98 448.545 430.38 444.438 426.46C440.425 422.447 435.945 420.44 430.998 420.44ZM629.26 419.88V422.68C626.273 422.773 624.033 423.147 622.54 423.8C621.047 424.36 620.02 425.48 619.46 427.16C618.993 428.747 618.76 431.267 618.76 434.72V504.16C618.76 507.52 618.993 510.04 619.46 511.72C620.02 513.4 621.047 514.52 622.54 515.08C624.033 515.64 626.273 516.013 629.26 516.2V519C626.647 518.813 623.333 518.72 619.32 518.72C615.4 518.627 611.387 518.58 607.28 518.58C602.8 518.58 598.6 518.627 594.68 518.72C590.76 518.72 587.587 518.813 585.16 519V516.2C588.333 516.013 590.713 515.64 592.3 515.08C593.98 514.52 595.1 513.4 595.66 511.72C596.22 510.04 596.5 507.52 596.5 504.16V428.42H597.48L562.76 519.14H560.52L522.72 428.98V496.04C522.72 501.173 523 505.14 523.56 507.94C524.12 510.647 525.333 512.607 527.2 513.82C529.16 514.94 532.193 515.733 536.3 516.2V519C534.527 518.813 532.193 518.72 529.3 518.72C526.407 518.627 523.7 518.58 521.18 518.58C519.033 518.58 516.84 518.627 514.6 518.72C512.36 518.72 510.493 518.813 509 519V516.2C511.987 515.733 514.227 514.94 515.72 513.82C517.213 512.7 518.193 510.88 518.66 508.36C519.22 505.747 519.5 502.2 519.5 497.72V434.72C519.5 431.267 519.22 428.747 518.66 427.16C518.193 425.48 517.167 424.36 515.58 423.8C514.087 423.147 511.893 422.773 509 422.68V419.88C510.493 419.973 512.36 420.067 514.6 420.16C516.84 420.253 519.033 420.3 521.18 420.3C525.193 420.3 529.113 420.253 532.94 420.16C536.86 420.067 540.313 419.973 543.3 419.88L572.7 490.86L569.2 494.08L597.34 420.3C598.927 420.3 600.56 420.3 602.24 420.3C603.92 420.3 605.6 420.3 607.28 420.3C611.387 420.3 615.4 420.253 619.32 420.16C623.333 420.067 626.647 419.973 629.26 419.88ZM703.566 419.6L737.586 507.24C738.893 510.6 740.339 512.933 741.926 514.24C743.606 515.453 745.099 516.107 746.406 516.2V519C743.606 518.813 740.293 518.72 736.466 518.72C732.733 518.627 728.953 518.58 725.126 518.58C720.833 518.58 716.773 518.627 712.946 518.72C709.119 518.72 706.086 518.813 703.846 519V516.2C708.606 516.013 711.593 515.22 712.806 513.82C714.113 512.327 713.833 509.2 711.966 504.44L688.166 439.34L690.686 435.7L669.406 491.14C667.353 496.273 666.093 500.473 665.626 503.74C665.253 507.007 665.486 509.527 666.326 511.3C667.259 513.073 668.706 514.333 670.666 515.08C672.719 515.733 675.146 516.107 677.946 516.2V519C674.866 518.813 671.926 518.72 669.126 518.72C666.326 518.627 663.479 518.58 660.586 518.58C658.533 518.58 656.573 518.627 654.706 518.72C652.933 518.72 651.346 518.813 649.946 519V516.2C651.906 515.827 653.913 514.567 655.966 512.42C658.019 510.273 660.026 506.633 661.986 501.5L693.906 419.6C695.399 419.693 696.986 419.74 698.666 419.74C700.439 419.74 702.073 419.693 703.566 419.6ZM713.366 478.68V481.48H671.646L673.046 478.68H713.366Z" fill="white"/>
<path d="M529.915 652.486C531.377 608.335 601.676 545.293 640.88 545.46C643.652 545.464 644.642 545.565 646.225 546.162C648.797 547.255 649.884 548.247 651.364 551.22C652.646 553.796 652.745 553.994 652.347 555.379C651.251 559.437 646.49 564.279 638.561 569.612C628.452 576.425 614.776 584.52 613.092 584.814C611.805 585.01 610.816 584.513 610.323 583.423C610.027 582.631 610.028 582.235 610.525 580.949C611.519 578.376 617.171 573.337 619.151 573.34C619.547 573.341 620.339 573.54 620.833 573.838C621.624 574.335 621.921 574.335 622.516 574.039C625.092 572.856 642.642 556.848 641.455 556.549C617.805 549.875 540.482 610.034 539.218 654.086C538.694 671.213 551.847 679.551 567.191 679.577C579.467 679.599 592.842 673.78 603.149 667.858C610.482 663.713 619.501 657.59 625.251 653.046C626.441 652.058 626.444 650.078 628.229 648.695C631.104 646.324 631.696 647.513 632.387 648.207C632.684 648.505 632.98 648.802 632.98 648.802C632.977 650.782 621.872 660.465 610.969 668.07C595.209 679.131 579.458 685.34 566.587 685.714C546.291 686.373 529.182 675.552 529.915 652.486ZM708.876 636.855C711.752 634.186 712.544 633.891 712.739 635.574C712.934 637.653 709.066 641.805 701.631 647.336C689.438 656.423 680.922 657.993 674.2 652.14C671.728 650.057 669.656 646.093 668.773 641.538C668.675 641.043 668.379 640.547 668.181 640.448C667.29 640.149 664.217 642.619 658.069 648.746C645.474 661.397 640.518 664.556 635.968 662.469C632.11 660.78 631.228 655.729 633.515 649.793C635.305 645.242 641.36 635.848 646.816 629.026C654.555 619.535 662.087 614.4 668.324 614.411C671.393 614.416 673.768 615.311 675.448 617.096C677.325 619.178 677.916 621.06 677.713 624.129C677.61 626.406 677.411 627 675.524 630.659L673.438 634.616L673.927 638.181C674.612 642.934 675.499 645.212 677.475 647.196C680.242 649.972 684.004 650.474 689.551 648.602C695.098 646.731 704.513 641.104 708.876 636.855ZM668.099 630.449C668.697 628.272 668.6 627.182 667.709 627.181C666.719 627.179 662.357 630.439 659.481 633.305C655.217 637.554 646.684 648.529 645.888 650.705C645.589 651.695 645.985 651.894 647.273 651.203C649.949 649.821 656.592 643.893 663.237 636.974C667.204 632.823 667.601 632.329 668.099 630.449ZM771.908 635.874C773.095 635.975 772.994 637.262 771.805 638.151C771.21 638.545 768.83 641.115 766.449 643.784C760.795 650.111 752.464 658.907 743.158 659.089C735.732 659.275 729.802 653.819 727.737 645.5C727.147 643.123 725.468 640.942 724.082 640.94C722.993 640.938 717.635 647.661 710.192 658.241C705.428 665.163 704.436 666.151 702.555 666.148C701.466 666.146 700.972 665.947 700.28 665.253C698.6 663.567 698.802 661.092 701.091 654.166C709.449 629.529 727.721 597.287 744.287 577.911C753.215 567.432 761.344 561.011 767.98 559.043C773.725 557.37 777.581 560.247 777.077 565.79C776.874 568.364 774.093 573.903 771.314 577.661C764.269 587.053 750.09 599.899 736.511 609.38C734.231 610.96 732.051 612.54 731.654 612.936C729.671 614.714 721.828 627.175 716.664 636.868C713.485 642.901 712.293 645.374 712.689 645.672C716.36 641.025 725.584 630.844 737.676 622.945C742.929 619.489 755.711 612.977 756.884 621.592C758.547 633.376 740.12 640.571 733.584 641.847C733.088 642.539 738.81 654.033 743.562 654.338C750.788 654.746 759.712 646.941 764.372 642.395C769.826 637.058 771.215 635.773 771.908 635.874ZM750.009 589.405C742.173 598.005 738.899 602.553 742.963 599.392C743.657 598.799 746.731 596.032 749.805 593.167C761.803 582 772.22 569.247 763.198 576.756C758.638 580.51 754.076 584.957 750.009 589.405ZM729.239 635.503C731.018 637.586 745.489 627.611 747.473 625.041C748.465 623.656 748.863 622.469 745.99 623.751C740.739 626.019 728.449 634.512 729.239 635.503ZM826.372 632.997C826.963 634.384 823.492 637.843 814.768 644.857C799.898 656.712 790.979 661.844 782.661 663.414C779.69 664.003 778.007 664 775.928 663.601C770.782 662.602 767.027 658.239 766.245 652.694C764.976 642.099 774.011 627.066 786.896 618.277C791.653 615.118 795.913 613.64 799.674 613.943C804.525 614.348 806.894 618.51 805.004 623.456C802.419 630.085 790.424 639.37 780.32 642.62C779.033 643.014 777.744 643.705 777.348 644.1C777.05 644.397 776.354 645.979 775.857 647.463C774.861 650.729 774.856 653.897 775.943 655.087C779.302 658.854 789.801 656.001 804.171 647.512C811.306 643.267 819.632 637.54 823.697 633.884C825.383 632.5 826.076 632.205 826.372 632.997ZM785.586 631.937C782.709 635.298 783.203 635.992 786.771 633.622C790.834 630.956 795.793 625.916 795.795 624.431C795.798 622.748 789.653 627.291 785.586 631.937Z" fill="white"/>
<defs>
<linearGradient id="paint0_linear_2129_292" x1="786.533" y1="52.6875" x2="865.43" y2="124.712" gradientUnits="userSpaceOnUse">
<stop stop-color="#D4A041"/>
<stop offset="0.230083" stop-color="#F7D14E"/>
<stop offset="0.464512" stop-color="#FCFBE7"/>
<stop offset="0.674728" stop-color="#FBE67B"/>
<stop offset="1" stop-color="#8C421D"/>
</linearGradient>
<linearGradient id="paint1_linear_2129_292" x1="117.967" y1="52.8625" x2="38.436" y2="124.826" gradientUnits="userSpaceOnUse">
<stop stop-color="#8C421D"/>
<stop offset="0.325272" stop-color="#FBE67B"/>
<stop offset="0.535488" stop-color="#FCFBE7"/>
<stop offset="0.769917" stop-color="#F7D14E"/>
<stop offset="1" stop-color="#D4A041"/>
</linearGradient>
<linearGradient id="paint2_linear_2129_292" x1="787.033" y1="884.813" x2="865.93" y2="812.788" gradientUnits="userSpaceOnUse">
<stop stop-color="#8C421D"/>
<stop offset="0.325272" stop-color="#FBE67B"/>
<stop offset="0.535488" stop-color="#FCFBE7"/>
<stop offset="0.769917" stop-color="#F7D14E"/>
<stop offset="1" stop-color="#D4A041"/>
</linearGradient>
<linearGradient id="paint3_linear_2129_292" x1="119.4" y1="885.4" x2="40.7908" y2="812.962" gradientUnits="userSpaceOnUse">
<stop stop-color="#D4A041"/>
<stop offset="0.230083" stop-color="#F7D14E"/>
<stop offset="0.464512" stop-color="#FCFBE7"/>
<stop offset="0.674728" stop-color="#FBE67B"/>
<stop offset="1" stop-color="#8C421D"/>
</linearGradient>
<linearGradient id="paint4_linear_2129_292" x1="117.042" y1="21" x2="698.351" y2="21.6852" gradientUnits="userSpaceOnUse">
<stop stop-color="#8C421D"/>
<stop offset="0.325272" stop-color="#FBE67B"/>
<stop offset="0.535488" stop-color="#FCFBE7"/>
<stop offset="0.769917" stop-color="#F7D14E"/>
<stop offset="1" stop-color="#D4A041"/>
</linearGradient>
<linearGradient id="paint5_linear_2129_292" x1="87.9671" y1="20.6875" x2="9.07069" y2="92.7122" gradientUnits="userSpaceOnUse">
<stop stop-color="#8C421D"/>
<stop offset="0.325272" stop-color="#FBE67B"/>
<stop offset="0.535488" stop-color="#FCFBE7"/>
<stop offset="0.769917" stop-color="#F7D14E"/>
<stop offset="1" stop-color="#D4A041"/>
</linearGradient>
<linearGradient id="paint6_linear_2129_292" x1="897.859" y1="732.467" x2="897.859" y2="222.65" gradientUnits="userSpaceOnUse">
<stop stop-color="#D4A041"/>
<stop offset="0.230083" stop-color="#F7D14E"/>
<stop offset="0.464512" stop-color="#FCFBE7"/>
<stop offset="0.674728" stop-color="#FBE67B"/>
<stop offset="1" stop-color="#8C421D"/>
</linearGradient>
<linearGradient id="paint7_linear_2129_292" x1="820.033" y1="920.313" x2="898.93" y2="848.288" gradientUnits="userSpaceOnUse">
<stop stop-color="#8C421D"/>
<stop offset="0.325272" stop-color="#FBE67B"/>
<stop offset="0.535488" stop-color="#FCFBE7"/>
<stop offset="0.769917" stop-color="#F7D14E"/>
<stop offset="1" stop-color="#D4A041"/>
</linearGradient>
<linearGradient id="paint8_linear_2129_292" x1="87.9671" y1="919.813" x2="9.07069" y2="847.788" gradientUnits="userSpaceOnUse">
<stop stop-color="#D4A041"/>
<stop offset="0.230083" stop-color="#F7D14E"/>
<stop offset="0.464512" stop-color="#FCFBE7"/>
<stop offset="0.674728" stop-color="#FBE67B"/>
<stop offset="1" stop-color="#8C421D"/>
</linearGradient>
<linearGradient id="paint9_linear_2129_292" x1="720.467" y1="919.825" x2="210.65" y2="919.275" gradientUnits="userSpaceOnUse">
<stop stop-color="#8C421D"/>
<stop offset="0.325272" stop-color="#FBE67B"/>
<stop offset="0.535488" stop-color="#FCFBE7"/>
<stop offset="0.769917" stop-color="#F7D14E"/>
<stop offset="1" stop-color="#D4A041"/>
</linearGradient>
<linearGradient id="paint10_linear_2129_292" x1="10.1406" y1="200.533" x2="10.1406" y2="710.35" gradientUnits="userSpaceOnUse">
<stop stop-color="#D4A041"/>
<stop offset="0.230083" stop-color="#F7D14E"/>
<stop offset="0.464512" stop-color="#FCFBE7"/>
<stop offset="0.674728" stop-color="#FBE67B"/>
<stop offset="1" stop-color="#8C421D"/>
</linearGradient>
<linearGradient id="paint11_linear_2129_292" x1="870.175" y1="706.933" x2="874.078" y2="247.14" gradientUnits="userSpaceOnUse">
<stop stop-color="#D4A041"/>
<stop offset="0.230083" stop-color="#F7D14E"/>
<stop offset="0.464512" stop-color="#FCFBE7"/>
<stop offset="0.674728" stop-color="#FBE67B"/>
<stop offset="1" stop-color="#8C421D"/>
</linearGradient>
<linearGradient id="paint12_linear_2129_292" x1="34.825" y1="229.467" x2="30.8579" y2="691.372" gradientUnits="userSpaceOnUse">
<stop stop-color="#D4A041"/>
<stop offset="0.230083" stop-color="#F7D14E"/>
<stop offset="0.464512" stop-color="#FCFBE7"/>
<stop offset="0.674728" stop-color="#FBE67B"/>
<stop offset="1" stop-color="#8C421D"/>
</linearGradient>
<linearGradient id="paint13_linear_2129_292" x1="218" y1="38.175" x2="672.188" y2="38.709" gradientUnits="userSpaceOnUse">
<stop stop-color="#8C421D"/>
<stop offset="0.325272" stop-color="#FBE67B"/>
<stop offset="0.535488" stop-color="#FCFBE7"/>
<stop offset="0.769917" stop-color="#F7D14E"/>
<stop offset="1" stop-color="#D4A041"/>
</linearGradient>
<linearGradient id="paint14_linear_2129_292" x1="692" y1="899.825" x2="237.812" y2="899.299" gradientUnits="userSpaceOnUse">
<stop stop-color="#8C421D"/>
<stop offset="0.325272" stop-color="#FBE67B"/>
<stop offset="0.535488" stop-color="#FCFBE7"/>
<stop offset="0.769917" stop-color="#F7D14E"/>
<stop offset="1" stop-color="#D4A041"/>
</linearGradient>
<linearGradient id="paint15_linear_2129_292" x1="819.533" y1="22.6875" x2="898.43" y2="94.7122" gradientUnits="userSpaceOnUse">
<stop stop-color="#D4A041"/>
<stop offset="0.230083" stop-color="#F7D14E"/>
<stop offset="0.464512" stop-color="#FCFBE7"/>
<stop offset="0.674728" stop-color="#FBE67B"/>
<stop offset="1" stop-color="#8C421D"/>
</linearGradient>
</defs>
</svg>
