<svg width="1481" height="401" viewBox="0 0 1481 401" fill="none" xmlns="http://www.w3.org/2000/svg">
<path fill-rule="evenodd" clip-rule="evenodd" d="M724.5 361C766.661 361 803.154 320.246 820.767 260.92C838.911 297.551 866.767 321 898 321C929.165 321 956.967 297.653 975.114 261.16C992.21 297.348 1020.5 321 1052.5 321C1074.05 321 1093.92 310.273 1109.82 292.213C1126.34 356.222 1164.31 401 1208.5 401C1250.66 401 1287.15 360.246 1304.77 300.92C1322.91 337.551 1350.77 361 1382 361C1436.68 361 1481 289.142 1481 200.5C1481 111.858 1436.68 40 1382 40C1345.91 40 1314.33 71.3071 1297.03 118.083C1277.64 70.9121 1245.22 40 1208.5 40C1177.14 40 1148.91 62.5528 1129.26 98.527C1112.1 63.0809 1084.11 40 1052.5 40C1025.86 40 1001.8 56.383 984.626 82.7409C967.738 33.397 935.275 0 898 0C861.91 0 830.331 31.3071 813.032 78.0832C793.639 30.9121 761.219 0 724.5 0C693.136 0 664.909 22.5528 645.258 58.527C628.102 23.0809 600.114 0 568.5 0C532.42 0 501.063 30.062 485.141 74.2579C468.307 52.7994 447.076 40 424 40C387.91 40 356.331 71.3071 339.032 118.083C319.639 70.9121 287.219 40 250.5 40C219.136 40 190.909 62.5528 171.258 98.527C154.102 63.0809 126.114 40 94.5 40C42.3091 40 0 102.904 0 180.5C0 258.096 42.3091 321 94.5 321C116.053 321 135.92 310.273 151.819 292.213C168.341 356.222 206.306 401 250.5 401C292.661 401 329.154 360.246 346.767 300.92C364.911 337.551 392.767 361 424 361C466.217 361 502.262 318.16 516.497 257.832C531.414 272.476 549.287 281 568.5 281C590.053 281 609.92 270.273 625.819 252.213C642.341 316.222 680.306 361 724.5 361Z" fill="white"/>
<rect width="1481" height="224" fill="white"/>
</svg>
