<svg width="40" height="40" viewBox="0 0 40 40" fill="none" xmlns="http://www.w3.org/2000/svg">
<path d="M19.9994 39.9989C18.9252 39.9989 17.8465 39.9132 16.7957 39.7429C12.1571 38.9959 7.90583 36.6115 4.82676 33.0293C1.7143 29.4081 0 24.7806 0 19.9994C0 8.97114 8.97225 0 19.9994 0C31.0266 0 40 8.97225 40 19.9994C40 24.8551 38.2389 29.5372 35.0397 33.1829C31.8715 36.7951 27.519 39.1473 22.7835 39.8074C21.8674 39.9354 20.9301 40 19.9994 40V39.9989ZM19.9994 1.33471C9.70807 1.33471 1.33582 9.70695 1.33582 19.9983C1.33582 29.2121 7.92697 36.9621 17.0083 38.4237C18.8395 38.7187 20.7564 38.7399 22.5987 38.4827C31.7569 37.207 38.6631 29.26 38.6631 19.9983C38.6631 9.70695 30.2908 1.33471 19.9983 1.33471H19.9994Z" fill="tresparent"/>
<path d="M22.6912 16.1893V20.4005H27.9009L27.076 26.0743H22.6912V39.1453C21.8118 39.2678 20.9123 39.3312 19.9995 39.3312C18.9453 39.3312 17.9112 39.2466 16.9026 39.0841V26.0743H12.0981V20.4005H16.9026V15.2486C16.9026 12.0516 19.4941 9.45898 22.6923 9.45898V9.46232C22.7012 9.46232 22.7101 9.45898 22.719 9.45898H27.902V14.3648H24.5157C23.5083 14.3648 22.6923 15.1807 22.6923 16.1882L22.6912 16.1893Z" fill="#ffffff"/>
</svg>
