<svg width="63" height="63" viewBox="0 0 63 63" fill="none" xmlns="http://www.w3.org/2000/svg">
<path d="M31.1323 62.5088C29.4663 62.5088 27.7933 62.3755 26.1634 62.1107C18.969 60.9491 12.3754 57.2409 7.59987 51.67C2.77252 46.0386 0.113678 38.8421 0.113678 31.4051C0.113678 14.2545 14.0294 0.30304 31.1323 0.30304C48.2353 0.30304 62.1528 14.2562 62.1528 31.4051C62.1528 38.9564 59.4214 46.2377 54.4594 51.9072C49.5457 57.5248 42.795 61.1828 35.4504 62.2093C34.0294 62.4084 32.5757 62.5088 31.1323 62.5088ZM31.1323 2.38043C15.1707 2.38043 2.1855 15.4005 2.1855 31.4051C2.1855 45.7339 12.4082 57.7862 26.4932 60.0592C29.3333 60.518 32.3064 60.5509 35.1638 60.151C49.3679 58.1671 60.0792 45.8083 60.0792 31.4051C60.0792 15.4005 47.094 2.38043 31.1306 2.38043H31.1323Z" fill="#00A3A8"/>
<path d="M40.5229 13.3595H21.7435C16.5553 13.3595 12.3357 17.5904 12.3357 22.7925V40.0193C12.3357 45.2215 16.5553 49.4524 21.7435 49.4524H40.5229C45.7111 49.4524 49.9307 45.2215 49.9307 40.0193V22.7925C49.9307 17.5904 45.7111 13.3595 40.5229 13.3595ZM15.6541 22.7925C15.6541 19.4254 18.3855 16.6867 21.7435 16.6867H40.5229C43.881 16.6867 46.6123 19.4254 46.6123 22.7925V40.0193C46.6123 43.3864 43.881 46.1251 40.5229 46.1251H21.7435C18.3855 46.1251 15.6541 43.3864 15.6541 40.0193V22.7925Z" fill="white"/>
<path d="M31.1324 40.1803C35.958 40.1803 39.8841 36.2437 39.8841 31.4051C39.8841 26.5665 35.958 22.6298 31.1324 22.6298C26.3067 22.6298 22.3806 26.5665 22.3806 31.4051C22.3806 36.2437 26.3067 40.1803 31.1324 40.1803ZM31.1324 25.9588C34.1279 25.9588 36.564 28.4015 36.564 31.4051C36.564 34.4086 34.1279 36.8513 31.1324 36.8513C28.1369 36.8513 25.7007 34.4086 25.7007 31.4051C25.7007 28.4015 28.1369 25.9588 31.1324 25.9588Z" fill="white"/>
<path d="M40.6956 24.0476C41.9956 24.0476 43.054 22.9864 43.054 21.6829C43.054 20.3793 41.9956 19.3181 40.6956 19.3181C39.3955 19.3181 38.3371 20.3793 38.3371 21.6829C38.3371 22.9864 39.3955 24.0476 40.6956 24.0476Z" fill="white"/>
</svg>
