<svg width="40" height="40" viewBox="0 0 40 40" fill="none" xmlns="http://www.w3.org/2000/svg">
<path d="M19.9994 40C18.9252 40 17.8465 39.9143 16.7957 39.744C12.1571 38.997 7.90582 36.6126 4.82676 33.0304C1.7143 29.4092 0 24.7817 0 19.9994C0 8.97114 8.97225 0 19.9994 0C31.0266 0 40 8.97225 40 19.9994C40 24.8551 38.2389 29.5372 35.0397 33.1829C31.8715 36.7951 27.519 39.1473 22.7835 39.8074C21.8674 39.9354 20.9301 40 19.9994 40ZM19.9994 1.33582C9.70807 1.33582 1.33582 9.70807 1.33582 19.9994C1.33582 29.2133 7.92697 36.9632 17.0083 38.4248C18.8395 38.7198 20.7564 38.741 22.5987 38.4838C31.7569 37.2081 38.6631 29.2611 38.6631 19.9994C38.6631 9.70807 30.2908 1.33582 19.9983 1.33582H19.9994Z" fill="url(#paint0_linear_2012_259)"/>
<path d="M26.054 8.396H13.9459C10.6008 8.396 7.88013 11.1166 7.88013 14.4617V25.539C7.88013 28.8841 10.6008 31.6047 13.9459 31.6047H26.054C29.3991 31.6047 32.1197 28.8841 32.1197 25.539V14.4617C32.1197 11.1166 29.3991 8.396 26.054 8.396ZM10.0197 14.4617C10.0197 12.2966 11.7807 10.5355 13.9459 10.5355H26.054C28.2191 10.5355 29.9801 12.2966 29.9801 14.4617V25.539C29.9801 27.7041 28.2191 29.4652 26.054 29.4652H13.9459C11.7807 29.4652 10.0197 27.7041 10.0197 25.539V14.4617Z" fill="url(#paint1_linear_2012_259)"/>
<path d="M19.9994 25.6424C23.1108 25.6424 25.6421 23.111 25.6421 19.9997C25.6421 16.8883 23.1108 14.3569 19.9994 14.3569C16.8881 14.3569 14.3567 16.8883 14.3567 19.9997C14.3567 23.111 16.8881 25.6424 19.9994 25.6424ZM19.9994 16.4976C21.9308 16.4976 23.5015 18.0683 23.5015 19.9997C23.5015 21.931 21.9308 23.5017 19.9994 23.5017C18.068 23.5017 16.4973 21.931 16.4973 19.9997C16.4973 18.0683 18.068 16.4976 19.9994 16.4976Z" fill="url(#paint2_linear_2012_259)"/>
<path d="M26.1654 15.2683C27.0036 15.2683 27.686 14.5859 27.686 13.7477C27.686 12.9094 27.0036 12.2271 26.1654 12.2271C25.3272 12.2271 24.6448 12.9094 24.6448 13.7477C24.6448 14.5859 25.3272 15.2683 26.1654 15.2683Z" fill="url(#paint3_linear_2012_259)"/>
<defs>
<linearGradient id="paint0_linear_2012_259" x1="5.86091" y1="34.1458" x2="34.138" y2="5.86759" gradientUnits="userSpaceOnUse">
<stop stop-color="#FAAD4F"/>
<stop offset="0.35" stop-color="#DD2A7B"/>
<stop offset="0.62" stop-color="#9537B0"/>
<stop offset="1" stop-color="#515BD4"/>
</linearGradient>
<linearGradient id="paint1_linear_2012_259" x1="9.91614" y1="30.0841" x2="30.0837" y2="9.9166" gradientUnits="userSpaceOnUse">
<stop stop-color="#FAAD4F"/>
<stop offset="0.35" stop-color="#DD2A7B"/>
<stop offset="0.62" stop-color="#9537B0"/>
<stop offset="1" stop-color="#515BD4"/>
</linearGradient>
<linearGradient id="paint2_linear_2012_259" x1="16.012" y1="23.9882" x2="23.9879" y2="16.0122" gradientUnits="userSpaceOnUse">
<stop stop-color="#FAAD4F"/>
<stop offset="0.35" stop-color="#DD2A7B"/>
<stop offset="0.62" stop-color="#9537B0"/>
<stop offset="1" stop-color="#515BD4"/>
</linearGradient>
<linearGradient id="paint3_linear_2012_259" x1="25.0912" y1="14.8219" x2="27.2396" y2="12.6734" gradientUnits="userSpaceOnUse">
<stop stop-color="#FAAD4F"/>
<stop offset="0.35" stop-color="#DD2A7B"/>
<stop offset="0.62" stop-color="#9537B0"/>
<stop offset="1" stop-color="#515BD4"/>
</linearGradient>
</defs>
</svg>
