<svg width="40" height="40" viewBox="0 0 40 40" fill="none" xmlns="http://www.w3.org/2000/svg">
<path d="M20 40C18.9258 40 17.847 39.9143 16.7962 39.744C12.1574 38.997 7.90604 36.6126 4.82689 33.0304C1.71435 29.4092 0 24.7817 0 19.9994C0 8.97114 8.97251 0 20 0C31.0275 0 40 8.97225 40 19.9994C40 24.8551 38.2389 29.5372 35.0395 33.1829C31.8713 36.7951 27.5187 39.1473 22.783 39.8074C21.8669 39.9354 20.9295 40 19.9989 40H20ZM20 1.33582C9.70834 1.33582 1.33586 9.70807 1.33586 19.9994C1.33586 29.2133 7.9272 36.9632 17.0088 38.4248C18.84 38.7198 20.757 38.741 22.5994 38.4838C31.7578 37.2081 38.6641 29.2611 38.6641 19.9994C38.6641 9.70807 30.2917 1.33582 20 1.33582Z" fill="black"/>
<path d="M29.4601 14.5905V18.284C28.8133 18.2217 27.9761 18.0747 27.0466 17.7341C25.8343 17.2899 24.9315 16.6821 24.3415 16.2113V23.6785L24.327 23.6551C24.3371 23.8032 24.3415 23.9534 24.3415 24.1059C24.3415 27.8151 21.3247 30.8329 17.6144 30.8329C13.904 30.8329 10.8872 27.814 10.8872 24.1059C10.8872 20.3979 13.904 17.3779 17.6144 17.3779C17.9773 17.3779 18.3335 17.4068 18.6819 17.4625V21.1037C18.3468 20.9835 17.9884 20.9189 17.6144 20.9189C15.8577 20.9189 14.4272 22.3482 14.4272 24.1059C14.4272 25.8637 15.8577 27.293 17.6144 27.293C19.371 27.293 20.8015 25.8625 20.8015 24.1059C20.8015 24.0403 20.8004 23.9746 20.7959 23.9089V9.39746H24.4884C24.5018 9.71027 24.5152 10.0253 24.5274 10.3381C24.5519 10.9537 24.7712 11.5448 25.153 12.029C25.6017 12.5979 26.2629 13.2591 27.1936 13.7867C28.0641 14.2799 28.8812 14.4914 29.4601 14.5916V14.5905Z" fill="black"/>
</svg>
