<svg width="63" height="63" viewBox="0 0 63 63" fill="none" xmlns="http://www.w3.org/2000/svg">
<path d="M31.246 62.5088C29.5799 62.5088 27.9069 62.3755 26.2771 62.1107C19.0827 60.9491 12.4891 57.2409 7.71353 51.67C2.88618 46.0386 0.227341 38.8421 0.227341 31.4051C0.227341 14.2545 14.1431 0.30304 31.246 0.30304C48.3489 0.30304 62.2647 14.2562 62.2647 31.4051C62.2647 38.9564 59.5333 46.2377 54.5713 51.9072C49.6576 57.5248 42.9069 61.1828 35.5623 62.2093C34.1414 62.4084 32.6877 62.5088 31.2443 62.5088H31.246ZM31.246 2.38043C15.2843 2.38043 2.29917 15.4005 2.29917 31.4051C2.29917 45.7339 12.5219 57.7862 26.6069 60.0592C29.447 60.518 32.42 60.5509 35.2774 60.151C49.4815 58.1671 60.1929 45.8083 60.1929 31.4051C60.1929 15.4005 47.2077 2.38043 31.246 2.38043Z" fill="tresparent"/>
<path d="M45.918 22.9934V28.7373C44.9149 28.6404 43.6165 28.4119 42.1749 27.8822C40.2947 27.1914 38.8945 26.2462 37.9795 25.5139V37.1266L37.957 37.0902C37.9726 37.3204 37.9795 37.5541 37.9795 37.7913C37.9795 43.5595 33.3006 48.2527 27.5461 48.2527C21.7916 48.2527 17.1127 43.5578 17.1127 37.7913C17.1127 32.0248 21.7916 27.3282 27.5461 27.3282C28.1089 27.3282 28.6614 27.3732 29.2018 27.4598V33.1224C28.6821 32.9354 28.1262 32.835 27.5461 32.835C24.8216 32.835 22.6031 35.0578 22.6031 37.7913C22.6031 40.5248 24.8216 42.7476 27.5461 42.7476C30.2705 42.7476 32.4891 40.5231 32.4891 37.7913C32.4891 37.6892 32.4874 37.587 32.4805 37.4849V14.9175H38.2074C38.2281 15.404 38.2488 15.8939 38.2678 16.3803C38.3058 17.3377 38.6459 18.2569 39.2381 19.01C39.9339 19.8946 40.9594 20.9229 42.4028 21.7435C43.7529 22.5104 45.0202 22.8393 45.918 22.9951V22.9934Z" fill="#ffffff"/>
</svg>
